<svg xmlns="http://www.w3.org/2000/svg"
    xmlns:xlink="http://www.w3.org/1999/xlink" width="100%" height="100%"
    viewBox="50 100 240.000000 50.000000" style="background-color: transparent;"
    color-interpolation-filters="sRGB">
    <g data-v-0dd9719b="" fill="#333" class="iconlinesvg-g iconlinesvg"
        transform="translate(66.41707013361156,104.25932857510634)">
        <g class="tp-name">
            <g transform="translate(0, 0)">
                <g data-gra="path-name" fill="#333" transform="scale(1.1400000000000001)">
                    <path
                        d="M11.57 0.36L11.57 0.36Q6.63 0.36 4.08-2.31Q1.53-4.98 1.53-9.97L1.53-9.97Q1.53-14.98 4.28-17.73Q7.04-20.49 12.12-20.49L12.12-20.49Q15.62-20.49 18.71-18.96L18.71-18.96L16.67-13.82Q15.41-14.38 14.34-14.70Q13.27-15.03 12.12-15.03L12.12-15.03Q10.43-15.03 9.51-13.72Q8.58-12.40 8.58-10.00L8.58-10.00Q8.58-5.17 12.15-5.17L12.15-5.17Q15.21-5.17 18.02-6.95L18.02-6.95L18.02-1.42Q15.33 0.36 11.57 0.36Z"
                        transform="translate(-1.5281342546890424, 27.648568608094767)"></path>
                </g>
            </g>
            <g transform="translate(23, 8.237042003943165)">
                <g>
                    <g class="imagesvg">
                        <g>

                            <svg x="0" y="0" width="22.710748944066264" height="25.011562586388106"
                                filtersec="colorsb3100383649" class="image-svg-svg primary"
                                style="overflow: visible;">
                                <svg xmlns="http://www.w3.org/2000/svg"
                                    viewBox="-0.6101917624473572 -0.005000852048397064 67.61019134521484 74.45999908447266">
                                    <title>资源 29</title>
                                    <path
                                        d="M37.23 74.45a37.23 37.23 0 1 1 0-74.45L67 59.56a37.19 37.19 0 0 1-29.77 14.89z"
                                        fill="#bce2e3" opacity=".8"></path>
                                    <path
                                        d="M37.23 0a37.23 37.23 0 1 0 0 74.45L67 14.89A37.19 37.19 0 0 0 37.23 0z"
                                        fill="#58c1c0" opacity=".8"></path>
                                </svg>
                            </svg> <!---->
                        </g>
                    </g>
                </g>
            </g>
            <g transform="translate(49, 0)">
                <g data-gra="path-name" fill="#333" transform="scale(1.1400000000000001)">
                    <path
                        d="M8.65 0.36L8.65 0.36Q6.50 0.36 4.90-0.87Q3.29-2.10 2.41-4.48Q1.53-6.86 1.53-10.04L1.53-10.04Q1.53-14.94 3.50-17.72Q5.47-20.49 8.92-20.49L8.92-20.49Q10.61-20.49 11.88-19.81Q13.15-19.14 14.20-17.54L14.20-17.54L14.34-17.54Q14.00-19.90 14.00-22.26L14.00-22.26L14.00-27.65L21.00-27.65L21.00 0L15.76 0L14.27-2.54L14.00-2.54Q12.21 0.36 8.65 0.36ZM11.50-5.14L11.50-5.14Q13.17-5.14 13.85-6.18Q14.54-7.23 14.59-9.42L14.59-9.42L14.59-9.97Q14.59-12.63 13.82-13.76Q13.06-14.89 11.43-14.89L11.43-14.89Q10.06-14.89 9.30-13.60Q8.55-12.31 8.55-9.93L8.55-9.93Q8.55-7.59 9.31-6.36Q10.08-5.14 11.50-5.14Z"
                        transform="translate(-1.5281342546890424, 27.648568608094767)"></path>
                </g>
            </g>
            <g transform="translate(75, 0)">
                <g data-gra="path-name" fill="#333" transform="scale(1.1400000000000001)">
                    <path
                        d="M12.12 0.36L12.12 0.36Q7.09 0.36 4.31-2.32Q1.53-4.99 1.53-9.93L1.53-9.93Q1.53-15.03 4.10-17.76Q6.68-20.49 11.46-20.49L11.46-20.49Q16.01-20.49 18.49-18.12Q20.97-15.74 20.97-11.28L20.97-11.28L20.97-8.19L8.55-8.19Q8.62-6.50 9.78-5.54Q10.95-4.58 12.95-4.58L12.95-4.58Q14.78-4.58 16.32-4.93Q17.86-5.28 19.65-6.11L19.65-6.11L19.65-1.12Q18.02-0.28 16.28 0.04Q14.54 0.36 12.12 0.36ZM11.71-15.76L11.71-15.76Q10.48-15.76 9.66-14.99Q8.83-14.22 8.69-12.56L8.69-12.56L14.66-12.56Q14.62-14.02 13.83-14.89Q13.04-15.76 11.71-15.76Z"
                        transform="translate(-1.5281342546890424, 27.648568608094767)"></path>
                </g>
            </g>
            <g transform="translate(101, 0)">
                <g data-gra="path-name" fill="#333" transform="scale(1.1400000000000001)">
                    <path
                        d="M22.05 0L15.07 0L15.07-10.98Q15.07-15.03 12.67-15.03L12.67-15.03Q10.96-15.03 10.15-13.60Q9.35-12.17 9.35-8.85L9.35-8.85L9.35 0L2.40 0L2.40-27.65L9.35-27.65L9.35-23.72Q9.35-21.06 9.06-17.64L9.06-17.64L9.38-17.64Q10.38-19.21 11.75-19.85Q13.11-20.49 14.93-20.49L14.93-20.49Q18.30-20.49 20.18-18.54Q22.05-16.60 22.05-13.10L22.05-13.10L22.05 0Z"
                        transform="translate(-2.3988153998025665, 27.648568608094767)"></path>
                </g>
            </g>
            <g transform="translate(127, 0)">
                <g data-gra="path-name" fill="#333" transform="scale(1.1400000000000001)">
                    <path
                        d="M7.89-0.28L-0.04-20.13L7.29-20.13L10.70-8.58Q10.95-7.68 11.03-6.40L11.03-6.40L11.18-6.40Q11.32-7.62 11.60-8.55L11.60-8.55L15.10-20.13L22.19-20.13L14.23 1.28Q12.70 5.37 10.47 7.05Q8.24 8.74 4.66 8.74L4.66 8.74Q3.27 8.74 1.81 8.44L1.81 8.44L1.81 2.99Q2.75 3.20 3.96 3.20L3.96 3.20Q4.89 3.20 5.58 2.84Q6.27 2.49 6.79 1.84Q7.30 1.19 7.89-0.28L7.89-0.28Z"
                        transform="translate(0.035538005923000986, 27.648568608094767)"></path>
                </g>
            </g>
            <g transform="translate(156, 0)">
                <g data-gra="path-name" fill="#333" transform="scale(1.1400000000000001)">
                    <path
                        d="M14.55 0L7.68 0L0-20.13L7.25-20.13L10.66-8.23Q10.68-8.14 10.73-7.92Q10.79-7.71 10.84-7.42Q10.89-7.13 10.94-6.80Q10.98-6.47 10.98-6.18L10.98-6.18L11.11-6.18Q11.11-7.11 11.43-8.19L11.43-8.19L15.00-20.13L22.23-20.13L14.55 0Z"
                        transform="translate(0, 27.648568608094767)"></path>
                </g>
            </g>
            <g transform="translate(185, 0)">
                <g data-gra="path-name" fill="#333" transform="scale(1.1400000000000001)">
                    <path
                        d="M12.12 0.36L12.12 0.36Q7.09 0.36 4.31-2.32Q1.53-4.99 1.53-9.93L1.53-9.93Q1.53-15.03 4.10-17.76Q6.68-20.49 11.46-20.49L11.46-20.49Q16.01-20.49 18.49-18.12Q20.97-15.74 20.97-11.28L20.97-11.28L20.97-8.19L8.55-8.19Q8.62-6.50 9.78-5.54Q10.95-4.58 12.95-4.58L12.95-4.58Q14.78-4.58 16.32-4.93Q17.86-5.28 19.65-6.11L19.65-6.11L19.65-1.12Q18.02-0.28 16.28 0.04Q14.54 0.36 12.12 0.36ZM11.71-15.76L11.71-15.76Q10.48-15.76 9.66-14.99Q8.83-14.22 8.69-12.56L8.69-12.56L14.66-12.56Q14.62-14.02 13.83-14.89Q13.04-15.76 11.71-15.76Z"
                        transform="translate(-1.5281342546890424, 27.648568608094767)"></path>
                </g>
            </g>
        </g> <!---->
    </g>
</svg>